<?xml version="1.0" standalone="no"?>
<!DOCTYPE svg PUBLIC "-//W3C//DTD SVG 20010904//EN"
 "http://www.w3.org/TR/2001/REC-SVG-20010904/DTD/svg10.dtd">
<svg version="1.1" id="katman_1" xmlns="http://www.w3.org/2000/svg" xmlns:xlink="http://www.w3.org/1999/xlink" x="0px" y="0px"
	 viewBox="0 0 150 150" style="enable-background:new 0 0 150 150;" xml:space="preserve">
  
  <g transform="translate(0.000000,150.000000) scale(0.100000,-0.100000)"
  fill="#d55d0f" stroke="none">
    <path d="M628 1333 c-15 -4 -15 -8 2 -58 10 -29 24 -63 30 -75 9 -17 9 -25 -4
-38 -23 -26 -74 -162 -81 -217 -3 -27 -8 -66 -11 -85 l-6 -35 -23 27 c-63 74
-96 281 -61 384 9 26 16 49 16 51 0 3 -17 -6 -39 -18 -34 -19 -39 -27 -45 -67
-10 -72 -7 -143 9 -211 9 -35 14 -65 12 -67 -2 -2 -30 7 -62 21 -33 13 -85 26
-116 30 -55 7 -56 6 -63 -20 -4 -15 -6 -28 -4 -30 2 -1 35 -7 74 -14 177 -31
323 -159 375 -333 17 -56 27 -71 51 -84 l31 -16 -7 39 c-9 48 -42 157 -56 182
-18 35 -30 153 -21 216 10 64 42 158 65 188 14 18 18 16 70 -35 30 -30 82 -69
116 -87 67 -36 65 -28 29 -124 -10 -27 -36 -76 -57 -110 -42 -65 -92 -197 -92
-241 0 -26 1 -26 29 -12 21 12 31 27 40 62 42 166 181 305 347 348 34 9 74 16
88 16 24 0 26 3 20 28 -4 15 -8 29 -10 31 -2 2 -29 0 -59 -6 -30 -5 -57 -8
-58 -6 -2 1 9 30 25 63 30 62 29 80 -5 109 -12 10 -18 4 -31 -35 -23 -68 -58
-123 -111 -174 l-47 -45 8 40 c21 105 0 254 -47 346 -18 35 -58 59 -98 59 -15
-1 -15 -2 0 -13 46 -35 100 -210 90 -290 -2 -19 -92 42 -151 103 -51 52 -71
82 -92 136 -26 67 -35 77 -70 67z"/>
    <path d="M766 1303 c-14 -14 -4 -54 20 -82 33 -39 44 -39 44 -1 0 46 -44 103
-64 83z"/>
    <path d="M537 1202 c-19 -21 -22 -69 -7 -92 17 -25 52 25 48 68 -4 42 -18 50
-41 24z"/>
    <path d="M1061 1194 c-24 -30 -25 -41 -10 -81 l11 -28 24 28 c24 28 30 60 18
91 -9 23 -19 20 -43 -10z"/>
    <path d="M270 1088 c1 -35 44 -78 79 -78 20 0 11 51 -14 75 -31 32 -65 33 -65
3z"/>
    <path d="M745 926 c-15 -36 -7 -86 15 -86 18 0 41 48 38 82 -4 48 -34 50 -53
4z"/>
    <path d="M218 833 c-42 -11 2 -63 52 -63 54 0 63 36 14 59 -26 11 -36 12 -66
4z"/>
    <path d="M1178 824 c-31 -16 -36 -39 -12 -48 29 -11 62 -6 85 14 24 20 24 20
5 35 -24 19 -43 18 -78 -1z"/>
    <path d="M728 773 c-25 -27 -30 -65 -12 -88 15 -20 15 -20 35 4 22 27 25 60 6
85 -12 16 -13 16 -29 -1z"/>
    <path d="M394 762 c-13 -8 -3 -42 17 -59 22 -18 66 -26 74 -14 11 19 -5 51
-35 66 -33 17 -40 18 -56 7z"/>
    <path d="M1018 755 c-49 -27 -49 -82 1 -70 49 12 86 67 54 79 -20 8 -24 7 -55
-9z"/>
    <path d="M1240 704 c-81 -17 -191 -71 -250 -123 l-45 -40 46 -1 c32 0 54 6 72
20 40 32 147 79 195 86 45 7 56 18 50 52 -3 18 -6 18 -68 6z"/>
    <path d="M162 683 c3 -23 10 -28 60 -39 60 -14 145 -53 187 -85 15 -13 40 -19
70 -19 l46 1 -45 39 c-79 69 -217 130 -292 130 -26 0 -29 -3 -26 -27z"/>
    <path d="M228 559 c-22 -12 -23 -35 -2 -43 48 -18 113 6 101 38 -7 18 -71 22
-99 5z"/>
    <path d="M1141 556 c-26 -31 77 -64 107 -34 9 9 8 16 -5 30 -20 22 -85 24
-102 4z"/>
    <path d="M372 484 c-59 -16 -112 -41 -112 -53 0 -4 8 -15 18 -25 18 -15 22
-15 68 6 98 44 271 21 353 -48 l29 -24 25 20 c14 12 52 33 84 47 80 37 213 39
288 5 l50 -23 17 22 c10 11 16 25 13 29 -3 5 -31 19 -63 31 -44 17 -79 22
-152 23 -91 1 -99 -1 -169 -37 -41 -20 -80 -37 -87 -37 -8 0 -37 13 -67 29
-93 50 -195 62 -295 35z"/>
    <path d="M576 323 c13 -37 24 -80 24 -95 0 -16 3 -28 8 -28 4 0 18 -3 31 -7
24 -6 24 -5 18 45 -10 86 -27 130 -52 136 -13 3 -30 8 -37 11 -12 5 -10 -10 8
-62z"/>
    <path d="M864 370 c-22 -8 -40 -56 -50 -132 l-6 -45 31 5 c24 3 31 9 31 26 0
21 21 106 35 139 8 19 -6 21 -41 7z"/>
    <path d="M700 248 c0 -58 0 -58 30 -58 30 0 30 1 30 54 0 52 -1 54 -30 58
l-30 5 0 -59z"/>
  </g>
</svg>

